<svg width="473" height="123" viewBox="0 0 473 123" fill="none" xmlns="http://www.w3.org/2000/svg">
<path d="M86.7925 47.0376C93.2541 47.0376 98.4922 41.7995 98.4922 35.3379C98.4922 28.8763 93.2541 23.6382 86.7925 23.6382C80.3309 23.6382 75.0928 28.8763 75.0928 35.3379C75.0928 41.7995 80.3309 47.0376 86.7925 47.0376Z" fill="#363A8B"/>
<path d="M83.8894 60.4699C81.6057 64.1212 76.5648 65.0877 72.6291 62.6327C68.6934 60.1778 26.2646 24.4736 26.2646 24.4736C26.2646 24.4736 76.9644 46.9451 80.8968 49.4044C84.8292 51.8636 86.1719 56.8165 83.8894 60.4699Z" fill="#363A8B"/>
<path d="M83.016 101.046C78.2145 104.852 70.6918 103.347 66.2134 97.6829C61.735 92.0184 54.7276 71.8353 23.877 26.8613C33.3715 34.7415 79.1226 78.2297 83.5978 83.8942C88.073 89.5587 87.8175 97.2378 83.016 101.046Z" fill="#363A8B"/>
<path d="M163.738 61.337C162.991 60.505 162.181 59.929 161.306 59.609C160.431 59.2677 159.514 59.097 158.554 59.097C157.637 59.097 156.794 59.2783 156.026 59.641C155.258 60.0037 154.586 60.5903 154.01 61.401C153.455 62.1903 153.018 63.225 152.698 64.505C152.378 65.785 152.218 67.3317 152.218 69.145C152.218 70.8943 152.346 72.3663 152.602 73.561C152.858 74.7557 153.21 75.7263 153.658 76.473C154.127 77.1983 154.682 77.721 155.322 78.041C155.962 78.361 156.677 78.521 157.466 78.521C158.191 78.521 158.842 78.457 159.418 78.329C160.015 78.1797 160.559 77.977 161.05 77.721C161.541 77.465 161.999 77.145 162.426 76.761C162.874 76.3557 163.311 75.897 163.738 75.385V61.337ZM173.658 37.721V85.625H167.514C166.277 85.625 165.466 85.0703 165.082 83.961L164.314 81.433C163.653 82.137 162.959 82.777 162.234 83.353C161.509 83.929 160.719 84.4303 159.866 84.857C159.034 85.2623 158.127 85.5717 157.146 85.785C156.186 86.0197 155.141 86.137 154.01 86.137C152.282 86.137 150.682 85.753 149.21 84.985C147.738 84.217 146.469 83.1077 145.402 81.657C144.335 80.2063 143.493 78.4357 142.874 76.345C142.277 74.233 141.978 71.833 141.978 69.145C141.978 66.6703 142.319 64.377 143.002 62.265C143.685 60.1317 144.645 58.297 145.882 56.761C147.141 55.2037 148.645 53.9877 150.394 53.113C152.143 52.2383 154.074 51.801 156.186 51.801C157.914 51.801 159.365 52.0463 160.538 52.537C161.711 53.0277 162.778 53.689 163.738 54.521V37.721H173.658ZM190.504 52.441V85.625H180.584V52.441H190.504ZM191.528 43.353C191.528 44.1423 191.368 44.889 191.048 45.593C190.728 46.2757 190.291 46.8837 189.736 47.417C189.181 47.929 188.531 48.345 187.784 48.665C187.059 48.9637 186.28 49.113 185.448 49.113C184.637 49.113 183.88 48.9637 183.176 48.665C182.472 48.345 181.843 47.929 181.288 47.417C180.755 46.8837 180.328 46.2757 180.008 45.593C179.709 44.889 179.56 44.1423 179.56 43.353C179.56 42.5423 179.709 41.785 180.008 41.081C180.328 40.377 180.755 39.7583 181.288 39.225C181.843 38.6917 182.472 38.2757 183.176 37.977C183.88 37.6783 184.637 37.529 185.448 37.529C186.28 37.529 187.059 37.6783 187.784 37.977C188.531 38.2757 189.181 38.6917 189.736 39.225C190.291 39.7583 190.728 40.377 191.048 41.081C191.368 41.785 191.528 42.5423 191.528 43.353ZM228.687 52.441L215.823 85.625H206.799L193.934 52.441H202.191C202.895 52.441 203.481 52.6117 203.951 52.953C204.441 53.273 204.772 53.6783 204.943 54.169L209.551 69.049C209.956 70.265 210.308 71.449 210.607 72.601C210.927 73.753 211.204 74.905 211.439 76.057C211.908 73.753 212.559 71.417 213.391 69.049L218.191 54.169C218.361 53.6783 218.681 53.273 219.151 52.953C219.62 52.6117 220.175 52.441 220.815 52.441H228.687ZM242.067 52.441V85.625H232.147V52.441H242.067ZM243.091 43.353C243.091 44.1423 242.931 44.889 242.611 45.593C242.291 46.2757 241.853 46.8837 241.299 47.417C240.744 47.929 240.093 48.345 239.347 48.665C238.621 48.9637 237.843 49.113 237.01 49.113C236.2 49.113 235.443 48.9637 234.739 48.665C234.035 48.345 233.405 47.929 232.851 47.417C232.317 46.8837 231.891 46.2757 231.571 45.593C231.272 44.889 231.123 44.1423 231.123 43.353C231.123 42.5423 231.272 41.785 231.571 41.081C231.891 40.377 232.317 39.7583 232.851 39.225C233.405 38.6917 234.035 38.2757 234.739 37.977C235.443 37.6783 236.2 37.529 237.01 37.529C237.843 37.529 238.621 37.6783 239.347 37.977C240.093 38.2757 240.744 38.6917 241.299 39.225C241.853 39.7583 242.291 40.377 242.611 41.081C242.931 41.785 243.091 42.5423 243.091 43.353ZM258.137 56.025C258.777 55.4277 259.438 54.873 260.121 54.361C260.804 53.849 261.529 53.4223 262.297 53.081C263.086 52.7183 263.929 52.441 264.825 52.249C265.742 52.0357 266.734 51.929 267.801 51.929C269.614 51.929 271.214 52.249 272.601 52.889C274.009 53.5077 275.193 54.3823 276.153 55.513C277.113 56.6223 277.838 57.9557 278.329 59.513C278.82 61.049 279.065 62.7237 279.065 64.537V85.625H269.145V64.537C269.145 62.9157 268.772 61.657 268.025 60.761C267.278 59.8437 266.18 59.385 264.729 59.385C263.641 59.385 262.617 59.6197 261.657 60.089C260.718 60.537 259.801 61.1557 258.905 61.945V85.625H248.985V52.441H255.129C256.366 52.441 257.177 52.9957 257.561 54.105L258.137 56.025ZM298.125 67.289C299.768 67.289 300.952 66.8837 301.677 66.073C302.424 65.241 302.797 64.1743 302.797 62.873C302.797 61.529 302.424 60.473 301.677 59.705C300.952 58.937 299.768 58.553 298.125 58.553C296.482 58.553 295.288 58.937 294.541 59.705C293.816 60.473 293.453 61.529 293.453 62.873C293.453 63.513 293.538 64.0997 293.709 64.633C293.901 65.1663 294.189 65.6357 294.573 66.041C294.957 66.425 295.437 66.7343 296.013 66.969C296.61 67.1823 297.314 67.289 298.125 67.289ZM305.805 86.841C305.805 86.0517 305.453 85.4863 304.749 85.145C304.045 84.7823 303.128 84.5263 301.997 84.377C300.866 84.2277 299.597 84.1423 298.189 84.121C296.802 84.0783 295.416 83.993 294.029 83.865C293.41 84.2917 292.898 84.7717 292.493 85.305C292.109 85.817 291.917 86.4037 291.917 87.065C291.917 87.5343 292.013 87.961 292.205 88.345C292.418 88.729 292.781 89.0597 293.293 89.337C293.805 89.6143 294.488 89.8277 295.341 89.977C296.216 90.1477 297.314 90.233 298.637 90.233C300.066 90.233 301.24 90.1477 302.157 89.977C303.074 89.8063 303.8 89.5717 304.333 89.273C304.888 88.9743 305.272 88.6117 305.485 88.185C305.698 87.7797 305.805 87.3317 305.805 86.841ZM315.597 53.465V57.081C315.597 57.6357 315.437 58.073 315.117 58.393C314.818 58.713 314.296 58.9583 313.549 59.129L311.149 59.673C311.277 60.1423 311.373 60.6223 311.437 61.113C311.522 61.6037 311.565 62.1157 311.565 62.649C311.565 64.313 311.213 65.8063 310.509 67.129C309.826 68.4517 308.877 69.5823 307.661 70.521C306.466 71.4383 305.048 72.153 303.405 72.665C301.762 73.1557 300.002 73.401 298.125 73.401C297.613 73.401 297.112 73.3903 296.621 73.369C296.13 73.3263 295.65 73.2623 295.181 73.177C294.456 73.625 294.093 74.1263 294.093 74.681C294.093 75.2357 294.392 75.641 294.989 75.897C295.586 76.1317 296.376 76.3023 297.357 76.409C298.338 76.4943 299.448 76.5583 300.685 76.601C301.944 76.6223 303.224 76.697 304.525 76.825C305.826 76.9317 307.096 77.1237 308.333 77.401C309.592 77.6783 310.712 78.1263 311.693 78.745C312.674 79.3637 313.464 80.1957 314.061 81.241C314.658 82.265 314.957 83.577 314.957 85.177C314.957 86.6703 314.594 88.1317 313.869 89.561C313.144 90.9903 312.077 92.2597 310.669 93.369C309.261 94.4783 307.533 95.3637 305.485 96.025C303.437 96.7077 301.09 97.049 298.445 97.049C295.842 97.049 293.592 96.8037 291.693 96.313C289.816 95.8223 288.248 95.1717 286.989 94.361C285.752 93.5717 284.834 92.6543 284.237 91.609C283.64 90.5637 283.341 89.4757 283.341 88.345C283.341 86.873 283.768 85.6463 284.621 84.665C285.474 83.6837 286.669 82.8943 288.205 82.297C287.394 81.8063 286.754 81.177 286.285 80.409C285.816 79.641 285.581 78.649 285.581 77.433C285.581 76.9423 285.666 76.4303 285.837 75.897C286.008 75.3423 286.274 74.809 286.637 74.297C287.021 73.7637 287.49 73.2623 288.045 72.793C288.6 72.3237 289.261 71.9077 290.029 71.545C288.301 70.6277 286.936 69.4223 285.933 67.929C284.93 66.4143 284.429 64.6543 284.429 62.649C284.429 60.985 284.781 59.4917 285.485 58.169C286.189 56.825 287.149 55.6943 288.365 54.777C289.602 53.8383 291.053 53.1237 292.717 52.633C294.381 52.121 296.184 51.865 298.125 51.865C300.941 51.865 303.437 52.3983 305.613 53.465H315.597ZM343.828 57.561C344.852 55.769 346.025 54.361 347.347 53.337C348.692 52.313 350.228 51.801 351.956 51.801C353.449 51.801 354.665 52.153 355.604 52.857L354.964 60.153C354.857 60.6223 354.676 60.9423 354.42 61.113C354.185 61.2837 353.854 61.369 353.428 61.369C353.257 61.369 353.033 61.3583 352.756 61.337C352.478 61.3157 352.19 61.2943 351.892 61.273C351.593 61.2303 351.284 61.1983 350.964 61.177C350.665 61.1343 350.388 61.113 350.132 61.113C348.681 61.113 347.518 61.497 346.644 62.265C345.79 63.033 345.065 64.0997 344.468 65.465V85.625H334.548V52.441H340.436C340.926 52.441 341.332 52.4837 341.652 52.569C341.993 52.6543 342.27 52.793 342.484 52.985C342.718 53.1557 342.889 53.3903 342.996 53.689C343.124 53.9877 343.23 54.3503 343.316 54.777L343.828 57.561ZM388.745 52.441V85.625H382.601C381.364 85.625 380.553 85.0703 380.169 83.961L379.593 82.041C378.953 82.6597 378.292 83.225 377.609 83.737C376.926 84.2277 376.19 84.6543 375.401 85.017C374.633 85.3583 373.79 85.625 372.873 85.817C371.977 86.0303 370.996 86.137 369.929 86.137C368.116 86.137 366.505 85.8277 365.097 85.209C363.71 84.569 362.537 83.6837 361.577 82.553C360.617 81.4223 359.892 80.089 359.401 78.553C358.91 77.017 358.665 75.3317 358.665 73.497V52.441H368.585V73.497C368.585 75.1397 368.958 76.409 369.705 77.305C370.452 78.201 371.55 78.649 373.001 78.649C374.089 78.649 375.102 78.425 376.041 77.977C377.001 77.5077 377.929 76.8783 378.825 76.089V52.441H388.745ZM405.405 37.721V85.625H395.485V37.721H405.405ZM432.75 65.049C432.75 64.2597 432.643 63.4917 432.43 62.745C432.238 61.9983 431.907 61.337 431.438 60.761C430.99 60.1637 430.393 59.6837 429.646 59.321C428.899 58.9583 427.993 58.777 426.926 58.777C425.049 58.777 423.577 59.321 422.51 60.409C421.443 61.4757 420.739 63.0223 420.398 65.049H432.75ZM420.27 70.809C420.59 73.5823 421.433 75.5983 422.798 76.857C424.163 78.0943 425.923 78.713 428.078 78.713C429.23 78.713 430.222 78.5743 431.054 78.297C431.886 78.0197 432.622 77.7103 433.262 77.369C433.923 77.0277 434.521 76.7183 435.054 76.441C435.609 76.1637 436.185 76.025 436.782 76.025C437.571 76.025 438.169 76.313 438.574 76.889L441.454 80.441C440.43 81.6143 439.321 82.5743 438.126 83.321C436.953 84.0463 435.737 84.6223 434.478 85.049C433.241 85.4543 431.993 85.7317 430.734 85.881C429.497 86.0517 428.313 86.137 427.182 86.137C424.857 86.137 422.67 85.7637 420.622 85.017C418.595 84.249 416.814 83.1183 415.278 81.625C413.763 80.1317 412.558 78.2757 411.662 76.057C410.787 73.8383 410.35 71.257 410.35 68.313C410.35 66.0943 410.723 63.993 411.47 62.009C412.238 60.025 413.326 58.2863 414.734 56.793C416.163 55.2997 417.881 54.1157 419.886 53.241C421.913 52.3663 424.195 51.929 426.734 51.929C428.931 51.929 430.937 52.2703 432.75 52.953C434.585 53.6357 436.153 54.6277 437.454 55.929C438.777 57.2303 439.801 58.8303 440.526 60.729C441.273 62.6063 441.646 64.7397 441.646 67.129C441.646 67.8757 441.614 68.4837 441.55 68.953C441.486 69.4223 441.369 69.7957 441.198 70.073C441.027 70.3503 440.793 70.5423 440.494 70.649C440.217 70.7557 439.854 70.809 439.406 70.809H420.27ZM467.698 59.705C467.442 60.1103 467.165 60.3983 466.866 60.569C466.589 60.7397 466.226 60.825 465.778 60.825C465.309 60.825 464.839 60.729 464.37 60.537C463.901 60.3237 463.389 60.0997 462.834 59.865C462.301 59.6303 461.693 59.417 461.01 59.225C460.327 59.0117 459.549 58.905 458.674 58.905C457.415 58.905 456.445 59.1503 455.762 59.641C455.101 60.1103 454.77 60.7717 454.77 61.625C454.77 62.2437 454.983 62.7557 455.41 63.161C455.858 63.5663 456.445 63.929 457.17 64.249C457.895 64.5477 458.717 64.8357 459.634 65.113C460.551 65.3903 461.49 65.6997 462.45 66.041C463.41 66.3823 464.349 66.7877 465.266 67.257C466.183 67.705 467.005 68.2703 467.73 68.953C468.455 69.6143 469.031 70.425 469.458 71.385C469.906 72.345 470.13 73.497 470.13 74.841C470.13 76.4837 469.831 77.9983 469.234 79.385C468.637 80.7717 467.741 81.9663 466.546 82.969C465.373 83.9717 463.911 84.7503 462.162 85.305C460.434 85.8597 458.439 86.137 456.178 86.137C455.047 86.137 453.917 86.0303 452.786 85.817C451.655 85.6037 450.557 85.3157 449.49 84.953C448.445 84.5903 447.474 84.1637 446.578 83.673C445.682 83.161 444.914 82.617 444.274 82.041L446.578 78.393C446.834 77.9663 447.154 77.6357 447.538 77.401C447.943 77.145 448.455 77.017 449.074 77.017C449.65 77.017 450.162 77.145 450.61 77.401C451.079 77.657 451.581 77.9343 452.114 78.233C452.647 78.5317 453.266 78.809 453.97 79.065C454.695 79.321 455.602 79.449 456.69 79.449C457.458 79.449 458.109 79.3743 458.642 79.225C459.175 79.0543 459.602 78.8303 459.922 78.553C460.242 78.2757 460.477 77.9663 460.626 77.625C460.775 77.2837 460.85 76.9317 460.85 76.569C460.85 75.9077 460.626 75.3637 460.178 74.937C459.73 74.5103 459.143 74.1477 458.418 73.849C457.693 73.529 456.861 73.241 455.922 72.985C455.005 72.7077 454.066 72.3983 453.106 72.057C452.146 71.7157 451.197 71.3103 450.258 70.841C449.341 70.3503 448.519 69.7423 447.794 69.017C447.069 68.2703 446.482 67.3637 446.034 66.297C445.586 65.2303 445.362 63.9397 445.362 62.425C445.362 61.017 445.629 59.6837 446.162 58.425C446.717 57.145 447.538 56.025 448.626 55.065C449.714 54.105 451.079 53.3477 452.722 52.793C454.365 52.217 456.285 51.929 458.482 51.929C459.677 51.929 460.829 52.0357 461.938 52.249C463.069 52.4623 464.125 52.761 465.106 53.145C466.087 53.529 466.983 53.9877 467.794 54.521C468.605 55.033 469.319 55.5983 469.938 56.217L467.698 59.705Z" fill="#363A8B"/>
</svg>
