<svg width="32" height="32" viewBox="0 0 32 32" fill="none" xmlns="http://www.w3.org/2000/svg">
<rect width="32" height="32" fill="#363A8B"/>
<path d="M24.1745 10.6517C26.2874 10.6517 28.0003 8.93877 28.0003 6.82583C28.0003 4.71288 26.2874 3 24.1745 3C22.0615 3 20.3486 4.71288 20.3486 6.82583C20.3486 8.93877 22.0615 10.6517 24.1745 10.6517Z" fill="white"/>
<path d="M23.2247 15.0442C22.478 16.2381 20.8296 16.5542 19.5426 15.7514C18.2556 14.9486 4.38135 3.27332 4.38135 3.27332C4.38135 3.27332 20.9602 10.6215 22.2462 11.4257C23.5321 12.2299 23.9711 13.8495 23.2247 15.0442Z" fill="white"/>
<path d="M22.9392 28.3125C21.3691 29.5573 18.9091 29.0652 17.4447 27.2129C15.9803 25.3606 13.6888 18.7606 3.60059 4.05408C6.70533 6.63091 21.666 20.8516 23.1294 22.7039C24.5928 24.5562 24.5093 27.0673 22.9392 28.3125Z" fill="white"/>
</svg>
